# xmcd
#
# Track frame offsets:
#	150
#	21505
#	35082
#	51100
#	69685
#	84785
#	100210
#	115667
#	131382
#	147032
#	162515
#	183872
#	197450
#	213470
#	232052
#	247152
#	262577
#	278035
#	293750
#	309400
#
# Disc length: 4331 seconds
#
# Revision: 1
# Processed by: cddbd v1.5.1PL2 Copyright (c) Steve Scherf et al.
# Submitted via: audiograbber 1.83.01
#
DISCID=1b10e914
DTITLE=Top Hits Monthly Country -  THC0409
DYEAR=2004
DGENRE=Country
TTITLE0=McGraw, Tim (Vocal) - Live Like You Were Dying
TTITLE1=Buffett And Black And Chesney - Hey Good Lookin'
TTITLE2=Vassar, Phil (Vocal) - In A Real Love
TTITLE3=Coffey, Kelly (Vocal) - Dance With My Father
TTITLE4=Jewell, Buddy (Vocal) - One Step At A Time
TTITLE5=Wilson, Gretchen (Vocal) - Here For The Party
TTITLE6=Turner, Josh (Vocal) - What It Ain't
TTITLE7=Johnson, Carolyn Dawn (Vocal) - Die Of A Broken Heart
TTITLE8=Bentley, Dierks (Vocal) - How Am I Doin'
TTITLE9=Cotter, Brad (Vocal) - I Meant To
TTITLE10=McGraw, Tim - Live Like You Were Dying
TTITLE11=Buffett And Black And Chesney - Hey Good Lookin'
TTITLE12=Vassar, Phil - In A Real Love
TTITLE13=Coffey, Kelly - Dance With My Father
TTITLE14=Jewell, Buddy - One Step At A Time
TTITLE15=Wilson, Gretchen - Here For The Party
TTITLE16=Turner, Josh - What It Ain't
TTITLE17=Johnson, Carolyn Dawn - Die Of A Broken Heart
TTITLE18=Bentley, Dierks - How Am I Doin'
TTITLE19=Cotter, Brad - I Meant To
EXTD=
EXTT0=
EXTT1=
EXTT2=
EXTT3=
EXTT4=
EXTT5=
EXTT6=
EXTT7=
EXTT8=
EXTT9=
EXTT10=
EXTT11=
EXTT12=
EXTT13=
EXTT14=
EXTT15=
EXTT16=
EXTT17=
EXTT18=
EXTT19=
PLAYORDER=
